<svg version="1.1" id="Layer_1" xmlns="http://www.w3.org/2000/svg" xmlns:xlink="http://www.w3.org/1999/xlink" x="0px" y="0px"
	 width="100%" viewBox="0 0 1341 2048" enable-background="new 0 0 1341 2048" xml:space="preserve">
<path fill="#000000" opacity="1.000000" stroke="none" 
	d="
M1342.000000,527.000000 
	C1342.000000,1034.666504 1342.000000,1541.833008 1342.000000,2048.999512 
	C895.000305,2048.999756 448.000580,2048.999756 1.000640,2049.000000 
	C1.000427,1366.333862 1.000427,683.667664 1.000213,1.001098 
	C447.999390,1.000732 894.998779,1.000732 1341.999023,1.000366 
	C1342.000000,176.166672 1342.000000,351.333344 1342.000000,527.000000 
M1332.740112,289.334747 
	C1316.703247,273.599915 1300.669556,257.861694 1284.628540,242.131104 
	C1267.774658,225.603455 1250.909058,209.087692 1234.056885,192.558319 
	C1216.135254,174.979828 1198.226440,157.388000 1180.305786,139.808456 
	C1163.221191,123.049080 1146.123047,106.303452 1129.040649,89.541855 
	C1110.649780,71.496529 1092.253052,53.457108 1073.894531,35.379002 
	C1066.888672,28.480181 1059.821045,21.631481 1053.100952,14.460682 
	C1050.006348,11.158628 1046.811890,9.900051 1042.250488,9.902132 
	C795.766907,10.014585 549.283264,10.001715 302.799683,10.001868 
	C301.633087,10.001869 300.399597,9.762002 299.315430,10.061538 
	C297.652069,10.521096 295.739685,10.974073 294.543213,12.086301 
	C285.431427,20.556410 276.394531,29.110538 267.474396,37.782597 
	C251.388229,53.421391 235.402039,69.162994 219.369614,84.857063 
	C203.694870,100.200974 188.012497,115.537086 172.337234,130.880463 
	C156.423813,146.456985 140.514603,162.037781 124.604301,177.617493 
	C108.577553,193.311234 92.517288,208.970947 76.534111,224.708954 
	C56.159710,244.770828 35.913170,264.963196 15.442051,284.925507 
	C12.201253,288.085785 10.903508,291.230988 10.905545,295.780640 
	C11.015778,541.930908 11.003167,788.081177 11.003568,1034.231445 
	C11.003570,1035.564697 10.791659,1036.945679 11.071536,1038.218140 
	C11.373639,1039.591553 11.827435,1041.156250 12.749092,1042.134033 
	C21.967525,1051.913452 31.241079,1061.642578 40.606087,1071.281860 
	C56.124359,1087.254639 71.706345,1103.165649 87.289543,1119.075195 
	C103.687546,1135.816528 120.132729,1152.511719 136.531006,1169.252808 
	C151.881134,1184.923828 167.186234,1200.638794 182.530396,1216.315674 
	C198.922943,1233.063599 215.297394,1249.829712 231.760864,1266.507812 
	C239.836487,1274.688843 247.963699,1282.830200 256.371094,1290.663696 
	C258.302521,1292.463257 261.476471,1293.844116 264.088226,1293.860107 
	C298.251343,1294.070190 332.416138,1293.999878 366.580536,1294.000000 
	C368.396515,1294.000000 370.212524,1294.000000 372.412964,1294.000000 
	C371.661407,1297.398438 370.997864,1300.399414 370.333923,1303.400513 
	C367.398773,1316.667480 375.442688,1330.438721 388.165833,1335.233276 
	C399.423889,1339.475464 410.669037,1337.351807 421.973389,1336.452515 
	C426.231110,1336.113647 430.471924,1335.561768 434.720428,1335.107056 
	C435.015961,1335.739014 435.311523,1336.370972 435.607056,1337.003052 
	C433.159729,1338.969727 430.936066,1341.361694 428.208832,1342.796143 
	C424.731903,1344.625122 420.763519,1345.491211 417.154816,1347.103394 
	C405.786743,1352.181519 395.150696,1358.339722 391.028137,1371.093262 
	C389.452118,1375.968872 387.053467,1377.124512 382.156403,1377.118408 
	C260.498016,1376.968384 138.839371,1377.036133 17.181011,1376.879517 
	C12.018180,1376.872925 10.876603,1378.308716 10.882325,1383.284912 
	C11.025280,1507.609619 11.016391,1631.934448 10.922759,1756.259277 
	C10.919874,1760.089844 12.042837,1762.767822 14.782429,1765.376465 
	C26.561583,1776.592163 38.200947,1787.955933 49.822086,1799.336304 
	C68.943901,1818.061890 88.013199,1836.841187 107.102875,1855.599609 
	C126.433456,1874.594604 145.760452,1893.593140 165.091553,1912.587646 
	C184.063232,1931.228882 203.053406,1949.851440 222.007629,1968.510498 
	C245.358536,1991.497437 268.744141,2014.450073 291.941254,2037.591431 
	C295.145660,2040.788208 298.273895,2042.097534 302.812592,2042.095459 
	C549.296143,2041.987061 795.779724,2041.999512 1042.263306,2041.999390 
	C1043.429932,2041.999390 1044.666260,2042.243408 1045.746826,2041.937622 
	C1047.406982,2041.467773 1049.307129,2040.990356 1050.502930,2039.871948 
	C1058.735962,2032.171265 1066.859985,2024.351685 1074.929199,2016.478149 
	C1092.182251,1999.643188 1109.373169,1982.744751 1126.604614,1965.887573 
	C1144.430786,1948.448730 1162.286255,1931.039673 1180.107910,1913.596069 
	C1197.687988,1896.388916 1215.247681,1879.161011 1232.804688,1861.930176 
	C1250.598267,1844.467651 1268.439819,1827.053223 1286.144043,1809.500366 
	C1301.051758,1794.720093 1315.742188,1779.720337 1330.658081,1764.948242 
	C1333.104248,1762.525513 1334.084839,1760.090942 1334.076050,1756.648560 
	C1333.967407,1714.151611 1334.005249,1671.654419 1334.005249,1629.157227 
	C1334.005249,1435.503418 1333.994629,1241.849731 1334.079468,1048.195923 
	C1334.081177,1044.242920 1333.047607,1041.400513 1330.203247,1038.553345 
	C1315.405029,1023.739868 1300.838013,1008.695557 1286.180420,993.741577 
	C1268.957886,976.170898 1251.709717,958.625244 1234.501221,941.040833 
	C1217.175537,923.336731 1199.919678,905.564148 1182.568970,887.884644 
	C1164.872437,869.852905 1147.130249,851.865967 1129.347046,833.919678 
	C1116.093506,820.544434 1102.662598,807.343933 1089.500366,793.880249 
	C1086.704102,791.020081 1083.904785,789.910767 1079.917603,789.917786 
	C1013.588867,790.034790 947.259949,790.016846 880.931091,789.941650 
	C878.365356,789.938721 875.524048,789.609192 873.293030,788.479919 
	C868.614990,786.111938 864.235046,783.146362 859.774048,780.359924 
	C844.611694,770.888977 829.298218,761.593811 816.944275,748.387451 
	C812.564758,743.705688 808.524963,738.706116 804.330078,733.851685 
	C808.799133,733.936279 812.482544,734.721008 816.151306,735.569153 
	C838.232117,740.673889 860.635437,743.423157 883.259155,743.878784 
	C893.352173,744.082092 902.942200,745.519836 912.003540,750.009766 
	C926.920532,757.401367 946.913330,749.744995 954.508057,735.123352 
	C958.779846,726.899292 959.456970,718.228027 958.857666,709.981079 
	C976.643494,709.981079 994.077820,709.981384 1011.512085,709.981018 
	C1118.671509,709.978577 1225.831055,709.975952 1333.791626,709.624573 
	C1333.861084,708.632874 1333.991333,707.641113 1333.991333,706.649414 
	C1334.000244,569.292725 1334.002930,431.936066 1333.959961,294.579376 
	C1333.959473,293.028381 1333.359009,291.477570 1332.740112,289.334747 
z"/>
<path fill="#8C1616" opacity="1.000000" stroke="none" 
	d="
M1332.990479,709.973389 
	C1225.831055,709.975952 1118.671509,709.978577 1011.512085,709.981018 
	C994.077820,709.981384 976.643494,709.981079 958.857666,709.981079 
	C959.456970,718.228027 958.779846,726.899292 954.508057,735.123352 
	C946.913330,749.744995 926.920532,757.401367 912.003540,750.009766 
	C902.942200,745.519836 893.352173,744.082092 883.259155,743.878784 
	C860.635437,743.423157 838.232117,740.673889 816.151306,735.569153 
	C812.482544,734.721008 808.799133,733.936279 804.330078,733.851685 
	C808.524963,738.706116 812.564758,743.705688 816.944275,748.387451 
	C829.298218,761.593811 844.611694,770.888977 859.774048,780.359924 
	C864.235046,783.146362 868.614990,786.111938 873.293030,788.479919 
	C875.524048,789.609192 878.365356,789.938721 880.931091,789.941650 
	C947.259949,790.016846 1013.588867,790.034790 1079.917603,789.917786 
	C1083.904785,789.910767 1086.704102,791.020081 1089.500366,793.880249 
	C1102.662598,807.343933 1116.093506,820.544434 1129.347046,833.919678 
	C1147.130249,851.865967 1164.872437,869.852905 1182.568970,887.884644 
	C1199.919678,905.564148 1217.175537,923.336731 1234.501221,941.040833 
	C1251.709717,958.625244 1268.957886,976.170898 1286.180420,993.741577 
	C1300.838013,1008.695557 1315.405029,1023.739868 1330.203247,1038.553345 
	C1333.047607,1041.400513 1334.081177,1044.242920 1334.079468,1048.195923 
	C1333.994629,1241.849731 1334.005249,1435.503418 1334.005249,1629.157227 
	C1334.005249,1671.654419 1333.967407,1714.151611 1334.076050,1756.648560 
	C1334.084839,1760.090942 1333.104248,1762.525513 1330.658081,1764.948242 
	C1315.742188,1779.720337 1301.051758,1794.720093 1286.144043,1809.500366 
	C1268.439819,1827.053223 1250.598267,1844.467651 1232.804688,1861.930176 
	C1215.247681,1879.161011 1197.687988,1896.388916 1180.107910,1913.596069 
	C1162.286255,1931.039673 1144.430786,1948.448730 1126.604614,1965.887573 
	C1109.373169,1982.744751 1092.182251,1999.643188 1074.929199,2016.478149 
	C1066.859985,2024.351685 1058.735962,2032.171265 1050.502930,2039.871948 
	C1049.307129,2040.990356 1047.406982,2041.467773 1045.746826,2041.937622 
	C1044.666260,2042.243408 1043.429932,2041.999390 1042.263306,2041.999390 
	C795.779724,2041.999512 549.296143,2041.987061 302.812592,2042.095459 
	C298.273895,2042.097534 295.145660,2040.788208 291.941254,2037.591431 
	C268.744141,2014.450073 245.358536,1991.497437 222.007629,1968.510498 
	C203.053406,1949.851440 184.063232,1931.228882 165.091553,1912.587646 
	C145.760452,1893.593140 126.433456,1874.594604 107.102875,1855.599609 
	C88.013199,1836.841187 68.943901,1818.061890 49.822086,1799.336304 
	C38.200947,1787.955933 26.561583,1776.592163 14.782429,1765.376465 
	C12.042837,1762.767822 10.919874,1760.089844 10.922759,1756.259277 
	C11.016391,1631.934448 11.025280,1507.609619 10.882325,1383.284912 
	C10.876603,1378.308716 12.018180,1376.872925 17.181011,1376.879517 
	C138.839371,1377.036133 260.498016,1376.968384 382.156403,1377.118408 
	C387.053467,1377.124512 389.452118,1375.968872 391.028137,1371.093262 
	C395.150696,1358.339722 405.786743,1352.181519 417.154816,1347.103394 
	C420.763519,1345.491211 424.731903,1344.625122 428.208832,1342.796143 
	C430.936066,1341.361694 433.159729,1338.969727 435.607056,1337.003052 
	C435.311523,1336.370972 435.015961,1335.739014 434.720428,1335.107056 
	C430.471924,1335.561768 426.231110,1336.113647 421.973389,1336.452515 
	C410.669037,1337.351807 399.423889,1339.475464 388.165833,1335.233276 
	C375.442688,1330.438721 367.398773,1316.667480 370.333923,1303.400513 
	C370.997864,1300.399414 371.661407,1297.398438 372.412964,1294.000000 
	C370.212524,1294.000000 368.396515,1294.000000 366.580536,1294.000000 
	C332.416138,1293.999878 298.251343,1294.070190 264.088226,1293.860107 
	C261.476471,1293.844116 258.302521,1292.463257 256.371094,1290.663696 
	C247.963699,1282.830200 239.836487,1274.688843 231.760864,1266.507812 
	C215.297394,1249.829712 198.922943,1233.063599 182.530396,1216.315674 
	C167.186234,1200.638794 151.881134,1184.923828 136.531006,1169.252808 
	C120.132729,1152.511719 103.687546,1135.816528 87.289543,1119.075195 
	C71.706345,1103.165649 56.124359,1087.254639 40.606087,1071.281860 
	C31.241079,1061.642578 21.967525,1051.913452 12.749092,1042.134033 
	C11.827435,1041.156250 11.373639,1039.591553 11.071536,1038.218140 
	C10.791659,1036.945679 11.003570,1035.564697 11.003568,1034.231445 
	C11.003167,788.081177 11.015778,541.930908 10.905545,295.780640 
	C10.903508,291.230988 12.201253,288.085785 15.442051,284.925507 
	C35.913170,264.963196 56.159710,244.770828 76.534111,224.708954 
	C92.517288,208.970947 108.577553,193.311234 124.604301,177.617493 
	C140.514603,162.037781 156.423813,146.456985 172.337234,130.880463 
	C188.012497,115.537086 203.694870,100.200974 219.369614,84.857063 
	C235.402039,69.162994 251.388229,53.421391 267.474396,37.782597 
	C276.394531,29.110538 285.431427,20.556410 294.543213,12.086301 
	C295.739685,10.974073 297.652069,10.521096 299.315430,10.061538 
	C300.399597,9.762002 301.633087,10.001869 302.799683,10.001868 
	C549.283264,10.001715 795.766907,10.014585 1042.250488,9.902132 
	C1046.811890,9.900051 1050.006348,11.158628 1053.100952,14.460682 
	C1059.821045,21.631481 1066.888672,28.480181 1073.894531,35.379002 
	C1092.253052,53.457108 1110.649780,71.496529 1129.040649,89.541855 
	C1146.123047,106.303452 1163.221191,123.049080 1180.305786,139.808456 
	C1198.226440,157.388000 1216.135254,174.979828 1234.056885,192.558319 
	C1250.909058,209.087692 1267.774658,225.603455 1284.628540,242.131104 
	C1300.669556,257.861694 1316.703247,273.599915 1332.877563,290.104248 
	C1333.006836,430.573608 1332.998657,570.273499 1332.990479,709.973389 
M398.012756,1293.546265 
	C396.751038,1296.984741 395.378815,1300.387329 394.250763,1303.869019 
	C391.966217,1310.920654 393.590912,1313.496704 401.140900,1313.760864 
	C406.609711,1313.952271 412.118561,1313.426392 417.591705,1312.994385 
	C446.054749,1310.747437 472.682800,1302.677124 497.436951,1288.272705 
	C501.294800,1286.027954 506.161377,1284.763550 510.648071,1284.495728 
	C523.460266,1283.730591 533.918091,1291.511841 535.463379,1302.173096 
	C536.445496,1308.948975 532.393066,1314.010254 529.053894,1319.009644 
	C511.595245,1345.148682 486.181000,1357.916626 455.691620,1361.984985 
	C443.631989,1363.594238 431.621643,1365.635010 420.845062,1371.750122 
	C409.084625,1378.423584 408.431488,1389.484131 419.134094,1397.902100 
	C420.442139,1398.931030 421.897522,1399.782227 423.149780,1400.870972 
	C427.182037,1404.376709 431.151031,1407.955200 435.144440,1411.505615 
	C434.915405,1411.879517 434.686340,1412.253296 434.457275,1412.627197 
	C305.066284,1412.627197 175.675293,1412.627197 45.996651,1412.627197 
	C45.996651,1414.664062 45.997059,1416.315430 45.996597,1417.966797 
	C45.966404,1525.797974 45.955341,1633.629028 45.826557,1741.460083 
	C45.822010,1745.263916 46.943996,1747.884399 49.645977,1750.536133 
	C135.402145,1834.701172 221.097214,1918.928711 306.712372,2003.237305 
	C309.548828,2006.030518 312.284668,2007.163086 316.263672,2007.161499 
	C553.425476,2007.066284 790.587280,2007.063232 1027.749146,2007.175537 
	C1032.280396,2007.177734 1035.394775,2005.882324 1038.615356,2002.714722 
	C1123.805908,1918.925781 1209.081299,1835.223511 1294.452026,1751.618286 
	C1297.699463,1748.437866 1299.034058,1745.388550 1299.031738,1740.835449 
	C1298.918457,1514.840088 1298.921631,1288.844727 1299.020874,1062.849365 
	C1299.022583,1058.855347 1297.857544,1056.116821 1295.080811,1053.293457 
	C1221.578613,978.556030 1148.149658,903.746338 1074.797729,828.861450 
	C1072.019897,826.025696 1069.346069,824.771667 1065.314819,824.781128 
	C1007.149719,824.916931 948.984070,824.890015 890.818665,824.812439 
	C888.610046,824.809509 886.075378,824.440247 884.245605,823.330261 
	C867.744568,813.320923 851.394348,803.063538 834.947205,792.964661 
	C809.177063,777.141357 789.038025,755.711121 772.650269,730.546448 
	C767.250793,722.255310 764.141296,713.244141 764.946655,703.189270 
	C765.575317,695.340881 769.792603,692.952576 776.829895,696.324524 
	C782.221741,698.907959 787.505005,701.789551 793.072815,703.921753 
	C820.904358,714.580017 850.070801,718.229187 879.573914,720.112976 
	C892.987183,720.969360 906.648560,720.791626 919.030457,727.294067 
	C923.084900,729.423340 926.956543,729.766602 930.739319,726.967712 
	C934.744751,724.004028 936.575623,719.709778 935.260559,715.106689 
	C933.874695,710.255737 931.874268,705.325378 929.027344,701.199036 
	C922.842651,692.235107 915.947998,683.760986 908.853577,674.443115 
	C1039.075806,674.443115 1168.894775,674.443115 1298.924072,674.443115 
	C1298.924072,672.745178 1298.924194,671.752808 1298.924194,670.760498 
	C1298.924316,550.096313 1298.940918,429.432068 1298.799072,308.768066 
	C1298.796387,306.479675 1297.486572,303.615112 1295.833008,301.989319 
	C1209.678711,217.279434 1123.435547,132.659988 1037.078613,48.156857 
	C1035.225708,46.343868 1031.940796,45.092640 1029.323120,45.091122 
	C791.494751,44.952927 553.666321,44.954899 315.837921,45.069481 
	C313.315704,45.070694 310.092621,45.960796 308.373108,47.640347 
	C221.821884,132.180786 135.388474,216.841919 49.042412,301.591980 
	C47.389751,303.214081 46.044975,306.053772 46.043690,308.326172 
	C45.909191,546.321228 45.910740,784.316406 46.024952,1022.311462 
	C46.025997,1024.491577 47.079754,1027.225220 48.592033,1028.771118 
	C122.592888,1104.418823 196.709167,1179.953613 270.743042,1255.568970 
	C273.157379,1258.034790 275.558685,1259.004761 279.003540,1258.998169 
	C324.335449,1258.912231 369.667633,1258.974854 414.999756,1259.000122 
	C416.701721,1259.001099 418.403687,1259.000244 420.831543,1259.000244 
	C408.738708,1271.265015 403.626068,1278.998901 398.012756,1293.546265 
z"/>
<path fill="#AA0000" opacity="1.000000" stroke="none" 
	d="
M1333.391113,709.798950 
	C1332.998657,570.273499 1333.006836,430.573608 1333.026855,290.400208 
	C1333.359009,291.477570 1333.959473,293.028381 1333.959961,294.579376 
	C1334.002930,431.936066 1334.000244,569.292725 1333.991333,706.649414 
	C1333.991333,707.641113 1333.861084,708.632874 1333.391113,709.798950 
z"/>
<path fill="#FFFEFE" opacity="1.000000" stroke="none" 
	d="
M398.121124,1293.173218 
	C403.626068,1278.998901 408.738708,1271.265015 420.831543,1259.000244 
	C418.403687,1259.000244 416.701721,1259.001099 414.999756,1259.000122 
	C369.667633,1258.974854 324.335449,1258.912231 279.003540,1258.998169 
	C275.558685,1259.004761 273.157379,1258.034790 270.743042,1255.568970 
	C196.709167,1179.953613 122.592888,1104.418823 48.592033,1028.771118 
	C47.079754,1027.225220 46.025997,1024.491577 46.024952,1022.311462 
	C45.910740,784.316406 45.909191,546.321228 46.043690,308.326172 
	C46.044975,306.053772 47.389751,303.214081 49.042412,301.591980 
	C135.388474,216.841919 221.821884,132.180786 308.373108,47.640347 
	C310.092621,45.960796 313.315704,45.070694 315.837921,45.069481 
	C553.666321,44.954899 791.494751,44.952927 1029.323120,45.091122 
	C1031.940796,45.092640 1035.225708,46.343868 1037.078613,48.156857 
	C1123.435547,132.659988 1209.678711,217.279434 1295.833008,301.989319 
	C1297.486572,303.615112 1298.796387,306.479675 1298.799072,308.768066 
	C1298.940918,429.432068 1298.924316,550.096313 1298.924194,670.760498 
	C1298.924194,671.752808 1298.924072,672.745178 1298.924072,674.443115 
	C1168.894775,674.443115 1039.075806,674.443115 908.853577,674.443115 
	C915.947998,683.760986 922.842651,692.235107 929.027344,701.199036 
	C931.874268,705.325378 933.874695,710.255737 935.260559,715.106689 
	C936.575623,719.709778 934.744751,724.004028 930.739319,726.967712 
	C926.956543,729.766602 923.084900,729.423340 919.030457,727.294067 
	C906.648560,720.791626 892.987183,720.969360 879.573914,720.112976 
	C850.070801,718.229187 820.904358,714.580017 793.072815,703.921753 
	C787.505005,701.789551 782.221741,698.907959 776.829895,696.324524 
	C769.792603,692.952576 765.575317,695.340881 764.946655,703.189270 
	C764.141296,713.244141 767.250793,722.255310 772.650269,730.546448 
	C789.038025,755.711121 809.177063,777.141357 834.947205,792.964661 
	C851.394348,803.063538 867.744568,813.320923 884.245605,823.330261 
	C886.075378,824.440247 888.610046,824.809509 890.818665,824.812439 
	C948.984070,824.890015 1007.149719,824.916931 1065.314819,824.781128 
	C1069.346069,824.771667 1072.019897,826.025696 1074.797729,828.861450 
	C1148.149658,903.746338 1221.578613,978.556030 1295.080811,1053.293457 
	C1297.857544,1056.116821 1299.022583,1058.855347 1299.020874,1062.849365 
	C1298.921631,1288.844727 1298.918457,1514.840088 1299.031738,1740.835449 
	C1299.034058,1745.388550 1297.699463,1748.437866 1294.452026,1751.618286 
	C1209.081299,1835.223511 1123.805908,1918.925781 1038.615356,2002.714722 
	C1035.394775,2005.882324 1032.280396,2007.177734 1027.749146,2007.175537 
	C790.587280,2007.063232 553.425476,2007.066284 316.263672,2007.161499 
	C312.284668,2007.163086 309.548828,2006.030518 306.712372,2003.237305 
	C221.097214,1918.928711 135.402145,1834.701172 49.645977,1750.536133 
	C46.943996,1747.884399 45.822010,1745.263916 45.826557,1741.460083 
	C45.955341,1633.629028 45.966404,1525.797974 45.996597,1417.966797 
	C45.997059,1416.315430 45.996651,1414.664062 45.996651,1412.627197 
	C175.675293,1412.627197 305.066284,1412.627197 434.457275,1412.627197 
	C434.686340,1412.253296 434.915405,1411.879517 435.144440,1411.505615 
	C431.151031,1407.955200 427.182037,1404.376709 423.149780,1400.870972 
	C421.897522,1399.782227 420.442139,1398.931030 419.134094,1397.902100 
	C408.431488,1389.484131 409.084625,1378.423584 420.845062,1371.750122 
	C431.621643,1365.635010 443.631989,1363.594238 455.691620,1361.984985 
	C486.181000,1357.916626 511.595245,1345.148682 529.053894,1319.009644 
	C532.393066,1314.010254 536.445496,1308.948975 535.463379,1302.173096 
	C533.918091,1291.511841 523.460266,1283.730591 510.648071,1284.495728 
	C506.161377,1284.763550 501.294800,1286.027954 497.436951,1288.272705 
	C472.682800,1302.677124 446.054749,1310.747437 417.591705,1312.994385 
	C412.118561,1313.426392 406.609711,1313.952271 401.140900,1313.760864 
	C393.590912,1313.496704 391.966217,1310.920654 394.250763,1303.869019 
	C395.378815,1300.387329 396.751038,1296.984741 398.121124,1293.173218 
M765.250244,558.676880 
	C763.013184,559.359497 760.744812,559.954529 758.544678,560.740417 
	C750.369385,563.660461 748.646423,569.249817 754.597839,575.749512 
	C758.006775,579.472656 762.246094,582.931946 766.796326,585.012207 
	C776.890503,589.627197 787.386597,593.375977 797.772156,597.338196 
	C822.581055,606.802917 844.642334,620.975037 865.634766,636.945984 
	C868.578308,639.185486 871.464355,640.147095 875.165100,640.142273 
	C1003.324341,639.975586 1131.483643,639.903442 1259.642944,639.817871 
	C1261.267822,639.816772 1262.892822,639.817749 1265.020996,639.817749 
	C1265.020996,637.772888 1265.021118,636.150696 1265.020996,634.528503 
	C1265.011841,531.033569 1264.986816,427.538666 1265.065918,324.043823 
	C1265.068481,320.757263 1264.041992,318.546112 1261.737305,316.289124 
	C1182.678833,238.865356 1103.664673,161.396332 1024.735107,83.841232 
	C1021.663574,80.823181 1018.677124,79.472694 1014.307922,79.474701 
	C786.319214,79.579330 558.330444,79.575775 330.341675,79.494164 
	C326.410950,79.492752 323.568512,80.475761 320.687775,83.304085 
	C241.489914,161.061264 162.180908,238.705307 83.008522,316.488373 
	C81.275818,318.190643 80.047546,321.294037 80.046112,323.744690 
	C79.912697,551.566772 79.912888,779.388855 80.042564,1007.210938 
	C80.043968,1009.682434 81.214760,1012.784119 82.923370,1014.532837 
	C150.356995,1083.548828 217.903900,1152.454224 285.540649,1221.271240 
	C287.055237,1222.812256 289.775482,1223.954834 291.936249,1223.959717 
	C354.766174,1224.101440 417.596497,1224.078857 480.426727,1224.049683 
	C482.058899,1224.048950 483.837891,1224.032837 485.299438,1223.425049 
	C495.886261,1219.023071 506.518066,1214.702637 516.919617,1209.889648 
	C526.222473,1205.584839 532.543091,1197.979614 534.463379,1188.105835 
	C536.357300,1178.367920 536.404907,1168.267700 537.181824,1158.319946 
	C537.283630,1157.017578 537.079834,1155.627930 536.717529,1154.364746 
	C535.614990,1150.520508 533.298523,1148.624146 529.255005,1150.474487 
	C522.437927,1153.593750 515.340759,1153.609741 508.196259,1152.334839 
	C497.881714,1150.494507 487.625244,1148.329956 477.314636,1146.466064 
	C461.117249,1143.538086 445.171265,1143.130615 430.203949,1151.663940 
	C428.784637,1152.473022 427.116425,1152.895264 425.518890,1153.333496 
	C419.392761,1155.014038 416.718323,1152.769653 418.151093,1146.536255 
	C419.106781,1142.378418 420.786987,1138.290527 422.734161,1134.472778 
	C435.034790,1110.354980 455.076782,1093.920410 478.288025,1081.564819 
	C506.166473,1066.724854 532.329895,1049.450195 557.510132,1030.534424 
	C568.007629,1022.648560 575.578125,1012.425781 581.149475,1000.681641 
	C584.716003,993.163879 586.016357,985.123901 585.060547,976.861755 
	C584.014709,967.820923 576.536499,963.700500 568.341858,967.762085 
	C564.195068,969.817383 560.460205,972.698425 556.517639,975.171936 
	C535.442566,988.394287 512.811096,995.267761 487.705566,991.958557 
	C480.620819,991.024780 473.560883,989.874634 466.458160,989.118835 
	C463.270905,988.779602 458.787842,990.591736 457.745667,986.612305 
	C457.004456,983.781677 458.968201,980.148987 460.040833,976.981262 
	C460.497528,975.632507 461.678986,974.483887 462.671021,973.368774 
	C470.888977,964.131348 479.410004,955.266907 490.819183,949.816650 
	C498.916351,945.948486 506.900726,941.843384 515.009644,938.000610 
	C527.805542,931.936584 540.717651,926.049377 551.035950,915.990723 
	C562.416321,904.896729 570.527283,891.904846 572.288147,875.803711 
	C572.648438,872.509338 571.930664,867.567444 569.783020,865.961182 
	C567.660339,864.373535 562.710205,865.162720 559.693359,866.487549 
	C554.568481,868.738098 549.856201,872.036377 545.205017,875.235413 
	C535.302002,882.046509 524.589172,886.803040 512.605591,888.129822 
	C504.180023,889.062744 495.695953,889.817139 487.227264,889.946411 
	C458.845398,890.379639 434.779541,899.411987 417.495575,923.182983 
	C414.821472,926.860840 411.038757,929.931396 407.263977,932.557129 
	C403.051270,935.487488 399.153290,933.994934 398.290771,928.949341 
	C397.319305,923.266357 396.522217,917.224976 397.400574,911.613586 
	C400.561340,891.420654 403.525757,871.118042 408.305359,851.276367 
	C415.022552,823.391052 430.290497,800.786438 454.881866,785.213440 
	C473.014557,773.730530 491.297241,762.483643 509.556061,751.201050 
	C529.681458,738.764954 546.316528,722.544067 560.178894,703.563416 
	C564.826294,697.200012 568.520325,689.924194 571.471375,682.591125 
	C575.464050,672.669739 575.453735,662.411560 570.266235,652.628113 
	C567.807007,647.990112 565.492615,647.230469 561.059509,650.058105 
	C558.131592,651.925659 555.290222,654.091003 552.878357,656.577209 
	C543.058167,666.700073 531.394531,672.890991 517.430725,675.509766 
	C501.717560,678.456604 486.132294,682.962952 470.022095,679.942078 
	C453.608582,676.864380 438.270264,679.101685 423.601746,686.850708 
	C419.598114,688.965820 415.592590,689.077881 411.870117,686.251587 
	C408.082123,683.375610 406.437164,679.254517 407.326538,674.776367 
	C408.087616,670.944153 409.388397,666.897400 411.594055,663.746033 
	C415.292236,658.462219 419.557251,653.462646 424.184662,648.961243 
	C443.623444,630.051819 466.048645,615.029541 488.515991,600.060181 
	C519.725525,579.266235 553.206848,562.535950 586.185791,544.884155 
	C595.561584,539.865784 603.152466,532.427063 608.121826,522.942932 
	C613.676941,512.341003 608.375977,502.479187 596.792419,499.983795 
	C589.545471,498.422577 582.784485,499.618896 576.403809,502.642761 
	C555.986389,512.318787 534.569946,508.497314 513.467285,507.261963 
	C504.211670,506.720154 502.916840,502.430542 508.538147,495.099121 
	C516.998230,484.065155 527.647034,475.640045 540.224365,469.772522 
	C552.423035,464.081604 564.806885,458.787384 577.003418,453.091919 
	C587.436646,448.219910 594.187744,440.188843 596.532349,428.744019 
	C599.421631,414.640198 594.047180,408.256531 579.920898,408.922302 
	C572.105164,409.290741 564.272217,410.069153 556.473938,409.820160 
	C548.428650,409.563263 545.888306,405.054230 550.023132,398.204102 
	C553.426208,392.566254 557.590088,387.218933 562.199158,382.508301 
	C578.052002,366.306091 596.520996,354.255127 618.544067,347.877899 
	C622.683838,346.679138 626.799744,344.180969 630.010376,341.271362 
	C634.988770,336.759766 633.873535,331.748688 627.559143,329.276428 
	C623.428528,327.659180 618.950317,326.666504 614.536987,326.092957 
	C606.789124,325.086121 598.883667,325.094147 591.225830,323.688080 
	C588.096985,323.113586 584.225159,320.514618 582.992249,317.793945 
	C582.153381,315.942871 584.620605,311.490936 586.810913,309.576355 
	C593.431885,303.788788 600.719116,298.771942 607.599182,293.270203 
	C618.629028,284.449982 630.093323,276.067413 640.335449,266.399597 
	C649.311462,257.926880 648.270996,252.464523 638.778931,244.671280 
	C632.992859,239.920776 627.037842,235.321884 621.717468,230.086929 
	C619.772522,228.173141 618.146484,224.259216 618.793823,221.929993 
	C619.290100,220.143982 623.573853,219.390717 626.198608,218.235870 
	C626.627014,218.047394 627.188965,218.114960 627.685913,218.137146 
	C637.213806,218.562332 643.738708,213.784012 647.384888,205.533493 
	C650.794006,197.819214 653.722229,189.802795 655.927063,181.665985 
	C659.665405,167.870270 662.625244,153.864777 666.013489,139.972137 
	C666.758362,136.917786 667.710693,133.736176 672.155823,134.109512 
	C672.426208,134.827148 672.730469,135.406570 672.864258,136.022995 
	C676.249084,151.624908 679.535889,167.248550 683.008301,182.830856 
	C686.624329,199.057693 693.383057,204.983231 709.734131,207.332535 
	C712.225830,207.690521 715.541382,209.285812 716.485046,211.260254 
	C717.251282,212.863617 715.591003,216.376755 714.023071,218.194046 
	C710.445618,222.340378 706.427673,226.152451 702.296265,229.765976 
	C692.441284,238.385590 695.109009,251.577927 708.131409,255.818878 
	C713.143982,257.451324 718.623596,257.610870 723.708923,259.072754 
	C727.153015,260.062897 731.807800,261.403290 733.077148,263.985199 
	C734.134583,266.136017 731.840820,271.037231 729.642273,273.459381 
	C724.860657,278.727173 719.367188,283.403168 713.844849,287.931030 
	C706.050842,294.321533 704.913635,299.515869 710.224548,308.171143 
	C711.523926,310.288696 712.895020,312.524139 714.740723,314.117310 
	C724.043091,322.146851 733.595581,329.886658 742.893005,337.921661 
	C748.280396,342.577545 753.954712,347.107178 758.416199,352.577545 
	C764.233276,359.710083 762.508789,365.567535 754.466248,370.180420 
	C749.999512,372.742401 745.268311,374.928711 741.095398,377.900787 
	C731.113220,385.010223 731.980164,389.706299 742.834167,395.116119 
	C762.020142,404.678741 778.446350,417.875366 790.933777,435.432373 
	C793.075989,438.444122 794.743042,443.761292 793.479431,446.622162 
	C792.416809,449.027924 786.790894,450.403381 783.148376,450.479614 
	C775.519836,450.639343 767.854492,449.780670 760.227539,449.084778 
	C751.404968,448.279816 746.780884,450.549805 746.036438,462.481049 
	C745.155273,476.603882 753.313171,487.960541 768.306030,494.789276 
	C784.184937,502.021576 800.142212,509.098358 815.832703,516.721741 
	C826.194580,521.756226 835.985107,527.953552 843.202576,537.211975 
	C850.882263,547.063416 847.910461,556.729370 835.731995,558.718933 
	C826.908081,560.160461 817.470947,559.764954 808.575806,558.416687 
	C794.290833,556.251526 780.216003,554.472961 765.250244,558.676880 
M932.193420,952.077576 
	C922.157349,952.368774 913.438782,948.459106 904.843262,943.832825 
	C899.013794,940.695312 893.042114,937.686401 886.850891,935.380371 
	C861.487671,925.933594 836.018311,916.771484 810.581970,907.521423 
	C804.032471,905.139709 797.622620,902.040039 790.864746,900.636536 
	C777.601624,897.882141 766.324768,909.620667 770.426697,921.829285 
	C775.768311,937.727600 784.000000,952.140991 798.196472,961.710083 
	C807.930298,968.271179 818.429443,973.871582 829.069031,978.875244 
	C847.512207,987.548706 865.594421,996.779663 880.992493,1010.267761 
	C887.677551,1016.123657 894.006409,1022.762146 899.001404,1030.067749 
	C904.196960,1037.666626 899.576477,1044.193726 890.231995,1043.837158 
	C888.426514,1043.768311 886.464172,1043.567139 884.872925,1042.804077 
	C872.854919,1037.040894 860.627563,1038.507568 848.224426,1041.178711 
	C842.228394,1042.469971 836.100464,1043.415771 829.985535,1043.832642 
	C817.030762,1044.715942 805.088440,1040.762695 793.341370,1035.690552 
	C785.125488,1032.143066 776.734619,1028.821777 768.143921,1026.375610 
	C760.606689,1024.229370 757.391113,1028.173462 759.567627,1035.714111 
	C759.889221,1036.828613 760.258545,1037.942749 760.739807,1038.995728 
	C766.063416,1050.644043 772.892639,1061.278442 783.097534,1069.221069 
	C808.881775,1089.289429 836.052795,1107.176270 865.017090,1122.460327 
	C876.092712,1128.304688 886.763916,1135.580811 896.117188,1143.894409 
	C920.652039,1165.702026 933.337708,1194.457275 940.967896,1225.749390 
	C941.631714,1228.471680 941.937805,1231.345459 941.945679,1234.150146 
	C941.961670,1239.875610 939.221008,1242.110718 934.066101,1239.879883 
	C928.477783,1237.461426 922.896973,1234.604980 918.071411,1230.940552 
	C910.275330,1225.020020 901.711975,1222.241577 892.119690,1222.093140 
	C886.288330,1222.003052 880.455078,1222.034302 874.622681,1222.020386 
	C854.513062,1221.972412 837.802429,1214.202393 823.990845,1199.793579 
	C822.269226,1197.997437 820.571106,1196.098877 818.558777,1194.677124 
	C813.931091,1191.407471 810.002197,1192.434937 808.557861,1197.910645 
	C805.259705,1210.415283 805.236694,1222.958740 810.693604,1234.994751 
	C815.277588,1245.105591 824.213806,1249.959106 833.897339,1254.241821 
	C855.318054,1263.715698 876.667480,1273.375977 897.783508,1283.507202 
	C922.054382,1295.151978 938.761780,1313.626831 946.989441,1339.633057 
	C951.190002,1352.910522 950.247131,1354.733887 936.062378,1354.175171 
	C903.617554,1352.897095 872.939575,1345.334229 844.913208,1328.327637 
	C835.820496,1322.810181 822.705078,1323.911011 814.325378,1330.449219 
	C807.388123,1335.861938 805.455688,1343.828979 809.321350,1351.715088 
	C815.301453,1363.914551 824.004639,1373.853760 834.802917,1382.018188 
	C851.489258,1394.634155 870.687622,1400.131714 891.105713,1403.214844 
	C901.478821,1404.781128 911.895203,1407.978760 921.496826,1412.233276 
	C932.575928,1417.142578 935.992432,1427.098633 930.792236,1438.072876 
	C927.369690,1445.295654 922.267151,1451.910522 917.030090,1458.039917 
	C909.771973,1466.534790 908.011292,1475.249756 913.201782,1485.138428 
	C916.600647,1491.613647 921.558716,1496.567261 927.955811,1500.316528 
	C937.130432,1505.693481 946.381287,1511.052368 954.978271,1517.276978 
	C968.059631,1526.748657 979.902222,1537.931396 985.637512,1553.357788 
	C993.677673,1574.983521 1000.897034,1596.950073 1007.473572,1619.066406 
	C1010.038635,1627.692627 1010.666626,1637.109009 1010.811523,1646.187378 
	C1010.999268,1657.945068 1004.066772,1662.760010 993.040833,1658.617432 
	C985.484070,1655.778198 978.227600,1651.801636 971.382568,1647.471069 
	C952.962463,1635.817505 935.010132,1623.421753 916.540894,1611.849121 
	C898.570801,1600.588989 879.651367,1591.355103 858.466431,1587.533081 
	C843.257324,1584.789062 828.174072,1587.262817 813.150513,1588.581787 
	C789.365295,1590.670044 767.791382,1586.532715 749.230469,1570.558838 
	C746.269714,1568.010742 742.592651,1566.062866 738.940369,1564.605225 
	C733.571106,1562.462646 729.135559,1564.379150 727.315430,1569.808960 
	C725.966003,1573.834351 725.202515,1578.254150 725.192688,1582.500610 
	C725.067200,1636.663818 724.933838,1690.828613 725.265564,1744.990234 
	C725.353027,1759.274170 726.133301,1773.673828 728.128479,1787.803955 
	C734.254822,1831.191650 754.857605,1865.348511 793.981750,1886.987549 
	C810.598755,1896.178101 825.444275,1907.567627 838.069641,1921.803101 
	C842.264893,1926.533569 846.028992,1931.855225 850.926819,1935.719360 
	C878.651733,1957.592529 910.749207,1969.115723 945.568054,1971.739258 
	C968.775269,1973.488037 992.204102,1972.239258 1015.531860,1972.504517 
	C1018.989258,1972.543701 1021.371155,1971.441895 1023.810730,1969.045898 
	C1103.112671,1891.158325 1182.496704,1813.354492 1261.756226,1735.423950 
	C1263.501343,1733.708130 1264.861816,1730.667969 1264.863403,1728.244629 
	C1265.004150,1510.756836 1265.003784,1293.268799 1264.867920,1075.781006 
	C1264.866333,1073.335938 1263.584717,1070.289551 1261.867676,1068.534546 
	C1194.737183,999.921143 1127.474121,931.437622 1060.302979,862.863953 
	C1057.894043,860.404724 1055.524536,859.357483 1052.072021,859.366516 
	C1010.408020,859.475952 968.743591,859.437378 927.079224,859.437317 
	C925.472290,859.437317 923.865356,859.437256 922.318909,859.437256 
	C922.206604,860.250549 922.021545,860.637085 922.142151,860.853271 
	C935.382996,884.592346 939.874512,910.823486 943.816467,937.191895 
	C945.088745,945.701904 941.467529,950.473267 932.193420,952.077576 
M370.500000,1972.074829 
	C379.331665,1972.074829 388.163544,1972.036621 396.994995,1972.081543 
	C435.575195,1972.277954 467.370270,1957.396484 491.739410,1927.791504 
	C502.483307,1914.739136 511.884521,1900.466309 520.848755,1886.094727 
	C530.972534,1869.863892 542.454224,1854.913940 556.346436,1841.801636 
	C567.129944,1831.623535 577.798218,1821.316406 588.791321,1811.369019 
	C598.516235,1802.569336 604.394226,1791.634888 608.042053,1779.287720 
	C615.048218,1755.573120 616.755920,1731.135254 616.949707,1706.646973 
	C617.497070,1637.502930 617.579224,1568.355225 617.785522,1499.208740 
	C617.797058,1495.344482 619.219360,1489.845337 614.778259,1488.559570 
	C611.260681,1487.541138 606.613586,1489.589355 602.723633,1490.987061 
	C600.155884,1491.909790 597.841736,1493.872681 595.761719,1495.754150 
	C590.207886,1500.777344 584.628967,1505.803711 579.449036,1511.202148 
	C570.606812,1520.417236 560.130554,1526.859863 548.139282,1531.037720 
	C533.048340,1536.295654 517.352844,1537.879272 501.553864,1539.040771 
	C492.441681,1539.710571 483.054413,1539.631470 474.320740,1541.915527 
	C443.880768,1549.875244 416.849609,1565.262085 390.842010,1582.500977 
	C378.735504,1590.525635 367.631744,1599.726318 358.202301,1610.969604 
	C350.636993,1619.990112 340.875183,1618.082397 336.322693,1607.235718 
	C335.747467,1605.865356 335.328156,1604.412964 334.988434,1602.962891 
	C332.639099,1592.935181 333.740356,1582.916626 336.676697,1573.356323 
	C342.331573,1554.944824 348.784973,1536.778564 354.901306,1518.508789 
	C358.960144,1506.385010 366.171082,1496.334961 375.276459,1487.535278 
	C389.696320,1473.599854 406.593048,1463.453247 424.661987,1455.035278 
	C428.580414,1453.209717 432.157715,1450.652100 435.892151,1448.431763 
	C435.713623,1448.092651 435.535095,1447.753662 435.356567,1447.414551 
	C317.020477,1447.414551 198.684387,1447.414551 80.001945,1447.414551 
	C80.001945,1448.837891 80.002220,1449.975098 80.001907,1451.112305 
	C79.976509,1543.427002 79.925491,1635.741821 80.067406,1728.056274 
	C80.071106,1730.457031 81.618439,1733.427246 83.391098,1735.171143 
	C162.615448,1813.115356 241.958298,1890.939087 321.206757,1968.858765 
	C323.688599,1971.298950 326.114502,1972.190674 329.509003,1972.146362 
	C342.837372,1971.971802 356.169342,1972.074829 370.500000,1972.074829 
z"/>
<path fill="#8C1515" opacity="1.000000" stroke="none" 
	d="
M765.632568,558.523926 
	C780.216003,554.472961 794.290833,556.251526 808.575806,558.416687 
	C817.470947,559.764954 826.908081,560.160461 835.731995,558.718933 
	C847.910461,556.729370 850.882263,547.063416 843.202576,537.211975 
	C835.985107,527.953552 826.194580,521.756226 815.832703,516.721741 
	C800.142212,509.098358 784.184937,502.021576 768.306030,494.789276 
	C753.313171,487.960541 745.155273,476.603882 746.036438,462.481049 
	C746.780884,450.549805 751.404968,448.279816 760.227539,449.084778 
	C767.854492,449.780670 775.519836,450.639343 783.148376,450.479614 
	C786.790894,450.403381 792.416809,449.027924 793.479431,446.622162 
	C794.743042,443.761292 793.075989,438.444122 790.933777,435.432373 
	C778.446350,417.875366 762.020142,404.678741 742.834167,395.116119 
	C731.980164,389.706299 731.113220,385.010223 741.095398,377.900787 
	C745.268311,374.928711 749.999512,372.742401 754.466248,370.180420 
	C762.508789,365.567535 764.233276,359.710083 758.416199,352.577545 
	C753.954712,347.107178 748.280396,342.577545 742.893005,337.921661 
	C733.595581,329.886658 724.043091,322.146851 714.740723,314.117310 
	C712.895020,312.524139 711.523926,310.288696 710.224548,308.171143 
	C704.913635,299.515869 706.050842,294.321533 713.844849,287.931030 
	C719.367188,283.403168 724.860657,278.727173 729.642273,273.459381 
	C731.840820,271.037231 734.134583,266.136017 733.077148,263.985199 
	C731.807800,261.403290 727.153015,260.062897 723.708923,259.072754 
	C718.623596,257.610870 713.143982,257.451324 708.131409,255.818878 
	C695.109009,251.577927 692.441284,238.385590 702.296265,229.765976 
	C706.427673,226.152451 710.445618,222.340378 714.023071,218.194046 
	C715.591003,216.376755 717.251282,212.863617 716.485046,211.260254 
	C715.541382,209.285812 712.225830,207.690521 709.734131,207.332535 
	C693.383057,204.983231 686.624329,199.057693 683.008301,182.830856 
	C679.535889,167.248550 676.249084,151.624908 672.864258,136.022995 
	C672.730469,135.406570 672.426208,134.827148 672.155823,134.109512 
	C667.710693,133.736176 666.758362,136.917786 666.013489,139.972137 
	C662.625244,153.864777 659.665405,167.870270 655.927063,181.665985 
	C653.722229,189.802795 650.794006,197.819214 647.384888,205.533493 
	C643.738708,213.784012 637.213806,218.562332 627.685913,218.137146 
	C627.188965,218.114960 626.627014,218.047394 626.198608,218.235870 
	C623.573853,219.390717 619.290100,220.143982 618.793823,221.929993 
	C618.146484,224.259216 619.772522,228.173141 621.717468,230.086929 
	C627.037842,235.321884 632.992859,239.920776 638.778931,244.671280 
	C648.270996,252.464523 649.311462,257.926880 640.335449,266.399597 
	C630.093323,276.067413 618.629028,284.449982 607.599182,293.270203 
	C600.719116,298.771942 593.431885,303.788788 586.810913,309.576355 
	C584.620605,311.490936 582.153381,315.942871 582.992249,317.793945 
	C584.225159,320.514618 588.096985,323.113586 591.225830,323.688080 
	C598.883667,325.094147 606.789124,325.086121 614.536987,326.092957 
	C618.950317,326.666504 623.428528,327.659180 627.559143,329.276428 
	C633.873535,331.748688 634.988770,336.759766 630.010376,341.271362 
	C626.799744,344.180969 622.683838,346.679138 618.544067,347.877899 
	C596.520996,354.255127 578.052002,366.306091 562.199158,382.508301 
	C557.590088,387.218933 553.426208,392.566254 550.023132,398.204102 
	C545.888306,405.054230 548.428650,409.563263 556.473938,409.820160 
	C564.272217,410.069153 572.105164,409.290741 579.920898,408.922302 
	C594.047180,408.256531 599.421631,414.640198 596.532349,428.744019 
	C594.187744,440.188843 587.436646,448.219910 577.003418,453.091919 
	C564.806885,458.787384 552.423035,464.081604 540.224365,469.772522 
	C527.647034,475.640045 516.998230,484.065155 508.538147,495.099121 
	C502.916840,502.430542 504.211670,506.720154 513.467285,507.261963 
	C534.569946,508.497314 555.986389,512.318787 576.403809,502.642761 
	C582.784485,499.618896 589.545471,498.422577 596.792419,499.983795 
	C608.375977,502.479187 613.676941,512.341003 608.121826,522.942932 
	C603.152466,532.427063 595.561584,539.865784 586.185791,544.884155 
	C553.206848,562.535950 519.725525,579.266235 488.515991,600.060181 
	C466.048645,615.029541 443.623444,630.051819 424.184662,648.961243 
	C419.557251,653.462646 415.292236,658.462219 411.594055,663.746033 
	C409.388397,666.897400 408.087616,670.944153 407.326538,674.776367 
	C406.437164,679.254517 408.082123,683.375610 411.870117,686.251587 
	C415.592590,689.077881 419.598114,688.965820 423.601746,686.850708 
	C438.270264,679.101685 453.608582,676.864380 470.022095,679.942078 
	C486.132294,682.962952 501.717560,678.456604 517.430725,675.509766 
	C531.394531,672.890991 543.058167,666.700073 552.878357,656.577209 
	C555.290222,654.091003 558.131592,651.925659 561.059509,650.058105 
	C565.492615,647.230469 567.807007,647.990112 570.266235,652.628113 
	C575.453735,662.411560 575.464050,672.669739 571.471375,682.591125 
	C568.520325,689.924194 564.826294,697.200012 560.178894,703.563416 
	C546.316528,722.544067 529.681458,738.764954 509.556061,751.201050 
	C491.297241,762.483643 473.014557,773.730530 454.881866,785.213440 
	C430.290497,800.786438 415.022552,823.391052 408.305359,851.276367 
	C403.525757,871.118042 400.561340,891.420654 397.400574,911.613586 
	C396.522217,917.224976 397.319305,923.266357 398.290771,928.949341 
	C399.153290,933.994934 403.051270,935.487488 407.263977,932.557129 
	C411.038757,929.931396 414.821472,926.860840 417.495575,923.182983 
	C434.779541,899.411987 458.845398,890.379639 487.227264,889.946411 
	C495.695953,889.817139 504.180023,889.062744 512.605591,888.129822 
	C524.589172,886.803040 535.302002,882.046509 545.205017,875.235413 
	C549.856201,872.036377 554.568481,868.738098 559.693359,866.487549 
	C562.710205,865.162720 567.660339,864.373535 569.783020,865.961182 
	C571.930664,867.567444 572.648438,872.509338 572.288147,875.803711 
	C570.527283,891.904846 562.416321,904.896729 551.035950,915.990723 
	C540.717651,926.049377 527.805542,931.936584 515.009644,938.000610 
	C506.900726,941.843384 498.916351,945.948486 490.819183,949.816650 
	C479.410004,955.266907 470.888977,964.131348 462.671021,973.368774 
	C461.678986,974.483887 460.497528,975.632507 460.040833,976.981262 
	C458.968201,980.148987 457.004456,983.781677 457.745667,986.612305 
	C458.787842,990.591736 463.270905,988.779602 466.458160,989.118835 
	C473.560883,989.874634 480.620819,991.024780 487.705566,991.958557 
	C512.811096,995.267761 535.442566,988.394287 556.517639,975.171936 
	C560.460205,972.698425 564.195068,969.817383 568.341858,967.762085 
	C576.536499,963.700500 584.014709,967.820923 585.060547,976.861755 
	C586.016357,985.123901 584.716003,993.163879 581.149475,1000.681641 
	C575.578125,1012.425781 568.007629,1022.648560 557.510132,1030.534424 
	C532.329895,1049.450195 506.166473,1066.724854 478.288025,1081.564819 
	C455.076782,1093.920410 435.034790,1110.354980 422.734161,1134.472778 
	C420.786987,1138.290527 419.106781,1142.378418 418.151093,1146.536255 
	C416.718323,1152.769653 419.392761,1155.014038 425.518890,1153.333496 
	C427.116425,1152.895264 428.784637,1152.473022 430.203949,1151.663940 
	C445.171265,1143.130615 461.117249,1143.538086 477.314636,1146.466064 
	C487.625244,1148.329956 497.881714,1150.494507 508.196259,1152.334839 
	C515.340759,1153.609741 522.437927,1153.593750 529.255005,1150.474487 
	C533.298523,1148.624146 535.614990,1150.520508 536.717529,1154.364746 
	C537.079834,1155.627930 537.283630,1157.017578 537.181824,1158.319946 
	C536.404907,1168.267700 536.357300,1178.367920 534.463379,1188.105835 
	C532.543091,1197.979614 526.222473,1205.584839 516.919617,1209.889648 
	C506.518066,1214.702637 495.886261,1219.023071 485.299438,1223.425049 
	C483.837891,1224.032837 482.058899,1224.048950 480.426727,1224.049683 
	C417.596497,1224.078857 354.766174,1224.101440 291.936249,1223.959717 
	C289.775482,1223.954834 287.055237,1222.812256 285.540649,1221.271240 
	C217.903900,1152.454224 150.356995,1083.548828 82.923370,1014.532837 
	C81.214760,1012.784119 80.043968,1009.682434 80.042564,1007.210938 
	C79.912888,779.388855 79.912697,551.566772 80.046112,323.744690 
	C80.047546,321.294037 81.275818,318.190643 83.008522,316.488373 
	C162.180908,238.705307 241.489914,161.061264 320.687775,83.304085 
	C323.568512,80.475761 326.410950,79.492752 330.341675,79.494164 
	C558.330444,79.575775 786.319214,79.579330 1014.307922,79.474701 
	C1018.677124,79.472694 1021.663574,80.823181 1024.735107,83.841232 
	C1103.664673,161.396332 1182.678833,238.865356 1261.737305,316.289124 
	C1264.041992,318.546112 1265.068481,320.757263 1265.065918,324.043823 
	C1264.986816,427.538666 1265.011841,531.033569 1265.020996,634.528503 
	C1265.021118,636.150696 1265.020996,637.772888 1265.020996,639.817749 
	C1262.892822,639.817749 1261.267822,639.816772 1259.642944,639.817871 
	C1131.483643,639.903442 1003.324341,639.975586 875.165100,640.142273 
	C871.464355,640.147095 868.578308,639.185486 865.634766,636.945984 
	C844.642334,620.975037 822.581055,606.802917 797.772156,597.338196 
	C787.386597,593.375977 776.890503,589.627197 766.796326,585.012207 
	C762.246094,582.931946 758.006775,579.472656 754.597839,575.749512 
	C748.646423,569.249817 750.369385,563.660461 758.544678,560.740417 
	C760.744812,559.954529 763.013184,559.359497 765.632568,558.523926 
z"/>
<path fill="#8C1515" opacity="1.000000" stroke="none" 
	d="
M932.631470,952.051575 
	C941.467529,950.473267 945.088745,945.701904 943.816467,937.191895 
	C939.874512,910.823486 935.382996,884.592346 922.142151,860.853271 
	C922.021545,860.637085 922.206604,860.250549 922.318909,859.437256 
	C923.865356,859.437256 925.472290,859.437317 927.079224,859.437317 
	C968.743591,859.437378 1010.408020,859.475952 1052.072021,859.366516 
	C1055.524536,859.357483 1057.894043,860.404724 1060.302979,862.863953 
	C1127.474121,931.437622 1194.737183,999.921143 1261.867676,1068.534546 
	C1263.584717,1070.289551 1264.866333,1073.335938 1264.867920,1075.781006 
	C1265.003784,1293.268799 1265.004150,1510.756836 1264.863403,1728.244629 
	C1264.861816,1730.667969 1263.501343,1733.708130 1261.756226,1735.423950 
	C1182.496704,1813.354492 1103.112671,1891.158325 1023.810730,1969.045898 
	C1021.371155,1971.441895 1018.989258,1972.543701 1015.531860,1972.504517 
	C992.204102,1972.239258 968.775269,1973.488037 945.568054,1971.739258 
	C910.749207,1969.115723 878.651733,1957.592529 850.926819,1935.719360 
	C846.028992,1931.855225 842.264893,1926.533569 838.069641,1921.803101 
	C825.444275,1907.567627 810.598755,1896.178101 793.981750,1886.987549 
	C754.857605,1865.348511 734.254822,1831.191650 728.128479,1787.803955 
	C726.133301,1773.673828 725.353027,1759.274170 725.265564,1744.990234 
	C724.933838,1690.828613 725.067200,1636.663818 725.192688,1582.500610 
	C725.202515,1578.254150 725.966003,1573.834351 727.315430,1569.808960 
	C729.135559,1564.379150 733.571106,1562.462646 738.940369,1564.605225 
	C742.592651,1566.062866 746.269714,1568.010742 749.230469,1570.558838 
	C767.791382,1586.532715 789.365295,1590.670044 813.150513,1588.581787 
	C828.174072,1587.262817 843.257324,1584.789062 858.466431,1587.533081 
	C879.651367,1591.355103 898.570801,1600.588989 916.540894,1611.849121 
	C935.010132,1623.421753 952.962463,1635.817505 971.382568,1647.471069 
	C978.227600,1651.801636 985.484070,1655.778198 993.040833,1658.617432 
	C1004.066772,1662.760010 1010.999268,1657.945068 1010.811523,1646.187378 
	C1010.666626,1637.109009 1010.038635,1627.692627 1007.473572,1619.066406 
	C1000.897034,1596.950073 993.677673,1574.983521 985.637512,1553.357788 
	C979.902222,1537.931396 968.059631,1526.748657 954.978271,1517.276978 
	C946.381287,1511.052368 937.130432,1505.693481 927.955811,1500.316528 
	C921.558716,1496.567261 916.600647,1491.613647 913.201782,1485.138428 
	C908.011292,1475.249756 909.771973,1466.534790 917.030090,1458.039917 
	C922.267151,1451.910522 927.369690,1445.295654 930.792236,1438.072876 
	C935.992432,1427.098633 932.575928,1417.142578 921.496826,1412.233276 
	C911.895203,1407.978760 901.478821,1404.781128 891.105713,1403.214844 
	C870.687622,1400.131714 851.489258,1394.634155 834.802917,1382.018188 
	C824.004639,1373.853760 815.301453,1363.914551 809.321350,1351.715088 
	C805.455688,1343.828979 807.388123,1335.861938 814.325378,1330.449219 
	C822.705078,1323.911011 835.820496,1322.810181 844.913208,1328.327637 
	C872.939575,1345.334229 903.617554,1352.897095 936.062378,1354.175171 
	C950.247131,1354.733887 951.190002,1352.910522 946.989441,1339.633057 
	C938.761780,1313.626831 922.054382,1295.151978 897.783508,1283.507202 
	C876.667480,1273.375977 855.318054,1263.715698 833.897339,1254.241821 
	C824.213806,1249.959106 815.277588,1245.105591 810.693604,1234.994751 
	C805.236694,1222.958740 805.259705,1210.415283 808.557861,1197.910645 
	C810.002197,1192.434937 813.931091,1191.407471 818.558777,1194.677124 
	C820.571106,1196.098877 822.269226,1197.997437 823.990845,1199.793579 
	C837.802429,1214.202393 854.513062,1221.972412 874.622681,1222.020386 
	C880.455078,1222.034302 886.288330,1222.003052 892.119690,1222.093140 
	C901.711975,1222.241577 910.275330,1225.020020 918.071411,1230.940552 
	C922.896973,1234.604980 928.477783,1237.461426 934.066101,1239.879883 
	C939.221008,1242.110718 941.961670,1239.875610 941.945679,1234.150146 
	C941.937805,1231.345459 941.631714,1228.471680 940.967896,1225.749390 
	C933.337708,1194.457275 920.652039,1165.702026 896.117188,1143.894409 
	C886.763916,1135.580811 876.092712,1128.304688 865.017090,1122.460327 
	C836.052795,1107.176270 808.881775,1089.289429 783.097534,1069.221069 
	C772.892639,1061.278442 766.063416,1050.644043 760.739807,1038.995728 
	C760.258545,1037.942749 759.889221,1036.828613 759.567627,1035.714111 
	C757.391113,1028.173462 760.606689,1024.229370 768.143921,1026.375610 
	C776.734619,1028.821777 785.125488,1032.143066 793.341370,1035.690552 
	C805.088440,1040.762695 817.030762,1044.715942 829.985535,1043.832642 
	C836.100464,1043.415771 842.228394,1042.469971 848.224426,1041.178711 
	C860.627563,1038.507568 872.854919,1037.040894 884.872925,1042.804077 
	C886.464172,1043.567139 888.426514,1043.768311 890.231995,1043.837158 
	C899.576477,1044.193726 904.196960,1037.666626 899.001404,1030.067749 
	C894.006409,1022.762146 887.677551,1016.123657 880.992493,1010.267761 
	C865.594421,996.779663 847.512207,987.548706 829.069031,978.875244 
	C818.429443,973.871582 807.930298,968.271179 798.196472,961.710083 
	C784.000000,952.140991 775.768311,937.727600 770.426697,921.829285 
	C766.324768,909.620667 777.601624,897.882141 790.864746,900.636536 
	C797.622620,902.040039 804.032471,905.139709 810.581970,907.521423 
	C836.018311,916.771484 861.487671,925.933594 886.850891,935.380371 
	C893.042114,937.686401 899.013794,940.695312 904.843262,943.832825 
	C913.438782,948.459106 922.157349,952.368774 932.631470,952.051575 
z"/>
<path fill="#8C1515" opacity="1.000000" stroke="none" 
	d="
M370.000000,1972.074829 
	C356.169342,1972.074829 342.837372,1971.971802 329.509003,1972.146362 
	C326.114502,1972.190674 323.688599,1971.298950 321.206757,1968.858765 
	C241.958298,1890.939087 162.615448,1813.115356 83.391098,1735.171143 
	C81.618439,1733.427246 80.071106,1730.457031 80.067406,1728.056274 
	C79.925491,1635.741821 79.976509,1543.427002 80.001907,1451.112305 
	C80.002220,1449.975098 80.001945,1448.837891 80.001945,1447.414551 
	C198.684387,1447.414551 317.020477,1447.414551 435.356567,1447.414551 
	C435.535095,1447.753662 435.713623,1448.092651 435.892151,1448.431763 
	C432.157715,1450.652100 428.580414,1453.209717 424.661987,1455.035278 
	C406.593048,1463.453247 389.696320,1473.599854 375.276459,1487.535278 
	C366.171082,1496.334961 358.960144,1506.385010 354.901306,1518.508789 
	C348.784973,1536.778564 342.331573,1554.944824 336.676697,1573.356323 
	C333.740356,1582.916626 332.639099,1592.935181 334.988434,1602.962891 
	C335.328156,1604.412964 335.747467,1605.865356 336.322693,1607.235718 
	C340.875183,1618.082397 350.636993,1619.990112 358.202301,1610.969604 
	C367.631744,1599.726318 378.735504,1590.525635 390.842010,1582.500977 
	C416.849609,1565.262085 443.880768,1549.875244 474.320740,1541.915527 
	C483.054413,1539.631470 492.441681,1539.710571 501.553864,1539.040771 
	C517.352844,1537.879272 533.048340,1536.295654 548.139282,1531.037720 
	C560.130554,1526.859863 570.606812,1520.417236 579.449036,1511.202148 
	C584.628967,1505.803711 590.207886,1500.777344 595.761719,1495.754150 
	C597.841736,1493.872681 600.155884,1491.909790 602.723633,1490.987061 
	C606.613586,1489.589355 611.260681,1487.541138 614.778259,1488.559570 
	C619.219360,1489.845337 617.797058,1495.344482 617.785522,1499.208740 
	C617.579224,1568.355225 617.497070,1637.502930 616.949707,1706.646973 
	C616.755920,1731.135254 615.048218,1755.573120 608.042053,1779.287720 
	C604.394226,1791.634888 598.516235,1802.569336 588.791321,1811.369019 
	C577.798218,1821.316406 567.129944,1831.623535 556.346436,1841.801636 
	C542.454224,1854.913940 530.972534,1869.863892 520.848755,1886.094727 
	C511.884521,1900.466309 502.483307,1914.739136 491.739410,1927.791504 
	C467.370270,1957.396484 435.575195,1972.277954 396.994995,1972.081543 
	C388.163544,1972.036621 379.331665,1972.074829 370.000000,1972.074829 
z"/>
</svg>